<svg xmlns="http://www.w3.org/2000/svg" xmlns:v="https://svgstorm.com"
viewBox = "0 0 117 89"
width="117"
height="89">
<g fill="None" fill-opacity="0.0" stroke="#000000" stroke-opacity="0.00" stroke-width="0.3"><path d="
M 0.00 89.00 
L 117.00 89.00
L 117.00 0.00
L 0.00 0.00
L 0.00 89.00
M 14.00 66.00 
C 12.14 54.53 11.36 37.34 14.00 26.00
C 17.25 12.03 30.31 7.78 44.00 10.00 C 57.69 12.22 78.27 6.26 90.68 12.32 C 103.08 18.38 105.34 34.67 98.69 45.69 C 92.05 56.72 75.68 56.60 71.00 43.00
C 81.95 45.49 91.23 38.87 89.00 28.00
C 81.68 18.27 64.86 23.06 55.00 22.00 C 45.14 20.94 24.48 19.84 26.00 33.00 C 27.53 46.17 21.53 57.36 28.30 68.70 C 35.07 80.03 49.84 63.53 49.00 55.00
C 53.08 57.49 55.22 61.31 59.00 64.00
C 58.32 89.40 15.27 91.69 14.00 66.00
M 73.00 52.00 
C 74.32 52.96 75.16 53.62 76.00 55.00
C 76.19 55.32 76.68 55.81 77.00 56.00
C 78.40 56.85 78.95 58.01 80.00 59.00
C 84.76 62.65 89.90 67.77 95.00 72.00
C 96.21 73.01 97.31 73.51 98.00 75.00
C 100.96 81.38 94.26 85.93 88.00 84.00
C 84.38 76.69 75.89 74.44 70.92 68.08 C 65.95 61.72 58.16 59.51 53.30 52.70 C 48.44 45.88 37.93 45.21 37.01 35.99 C 36.09 26.77 51.36 29.19 55.25 36.75 C 59.14 44.31 68.68 45.93 73.00 52.00 Z"/>
</g>
<g fill="None" fill-opacity="0.0" stroke="#F7F7F7" stroke-opacity="0.93" stroke-width="0.3"><path d="
M 14.00 26.00 
C 12.58 38.68 13.31 53.25 14.00 66.00
C 15.27 91.69 58.32 89.40 59.00 64.00
C 55.22 61.31 53.08 57.49 49.00 55.00
C 49.84 63.53 35.07 80.03 28.30 68.70 C 21.53 57.36 27.53 46.17 26.00 33.00 C 24.48 19.84 45.14 20.94 55.00 22.00 C 64.86 23.06 81.68 18.27 89.00 28.00
C 91.23 38.87 81.95 45.49 71.00 43.00
C 75.68 56.60 92.05 56.72 98.69 45.69 C 105.34 34.67 103.08 18.38 90.68 12.32 C 78.27 6.26 57.69 12.22 44.00 10.00 C 30.31 7.78 17.25 12.03 14.00 26.00 Z"/>
</g>
<g fill="None" fill-opacity="0.0" stroke="#676767" stroke-opacity="0.32" stroke-width="0.3"><path d="
M 14.00 66.00 
C 13.31 53.25 12.58 38.68 14.00 26.00
C 11.36 37.34 12.14 54.53 14.00 66.00 Z"/>
</g>
<g fill="None" fill-opacity="0.0" stroke="#F6F6F6" stroke-opacity="0.91" stroke-width="0.3"><path d="
M 98.00 75.00 
C 97.62 74.37 95.56 72.57 95.00 72.00
C 89.90 67.77 84.76 62.65 80.00 59.00
C 78.72 58.02 77.99 57.17 77.00 56.00
C 76.68 55.81 76.19 55.32 76.00 55.00
C 74.93 54.10 73.94 52.84 73.00 52.00
C 68.68 45.93 59.14 44.31 55.25 36.75 C 51.36 29.19 36.09 26.77 37.01 35.99 C 37.93 45.21 48.44 45.88 53.30 52.70 C 58.16 59.51 65.95 61.72 70.92 68.08 C 75.89 74.44 84.38 76.69 88.00 84.00
C 94.26 85.93 100.96 81.38 98.00 75.00 Z"/>
</g>
<g fill="None" fill-opacity="0.0" stroke="#757575" stroke-opacity="0.15" stroke-width="0.3"><path d="
M 76.00 55.00 
C 75.16 53.62 74.32 52.96 73.00 52.00
C 73.94 52.84 74.93 54.10 76.00 55.00 Z"/>
</g>
<g fill="None" fill-opacity="0.0" stroke="#777777" stroke-opacity="0.15" stroke-width="0.3"><path d="
M 80.00 59.00 
C 78.95 58.01 78.40 56.85 77.00 56.00
C 77.99 57.17 78.72 58.02 80.00 59.00 Z"/>
</g>
<g fill="None" fill-opacity="0.0" stroke="#767676" stroke-opacity="0.20" stroke-width="0.3"><path d="
M 98.00 75.00 
C 97.31 73.51 96.21 73.01 95.00 72.00
C 95.56 72.57 97.62 74.37 98.00 75.00 Z"/>
</g>
<g fill="#000000" fill-opacity="0.00" stroke="None">
<path d="
M 0.00 89.00 
L 117.00 89.00
L 117.00 0.00
L 0.00 0.00
L 0.00 89.00
M 14.00 66.00 
C 12.14 54.53 11.36 37.34 14.00 26.00
C 17.25 12.03 30.31 7.78 44.00 10.00 C 57.69 12.22 78.27 6.26 90.68 12.32 C 103.08 18.38 105.34 34.67 98.69 45.69 C 92.05 56.72 75.68 56.60 71.00 43.00
C 81.95 45.49 91.23 38.87 89.00 28.00
C 81.68 18.27 64.86 23.06 55.00 22.00 C 45.14 20.94 24.48 19.84 26.00 33.00 C 27.53 46.17 21.53 57.36 28.30 68.70 C 35.07 80.03 49.84 63.53 49.00 55.00
C 53.08 57.49 55.22 61.31 59.00 64.00
C 58.32 89.40 15.27 91.69 14.00 66.00
M 73.00 52.00 
C 74.32 52.96 75.16 53.62 76.00 55.00
C 76.19 55.32 76.68 55.81 77.00 56.00
C 78.40 56.85 78.95 58.01 80.00 59.00
C 84.76 62.65 89.90 67.77 95.00 72.00
C 96.21 73.01 97.31 73.51 98.00 75.00
C 100.96 81.38 94.26 85.93 88.00 84.00
C 84.38 76.69 75.89 74.44 70.92 68.08 C 65.95 61.72 58.16 59.51 53.30 52.70 C 48.44 45.88 37.93 45.21 37.01 35.99 C 36.09 26.77 51.36 29.19 55.25 36.75 C 59.14 44.31 68.68 45.93 73.00 52.00 Z"/>
</g>
<g fill="#F7F7F7" fill-opacity="0.93" stroke="None">
<path d="
M 14.00 26.00 
C 12.58 38.68 13.31 53.25 14.00 66.00
C 15.27 91.69 58.32 89.40 59.00 64.00
C 55.22 61.31 53.08 57.49 49.00 55.00
C 49.84 63.53 35.07 80.03 28.30 68.70 C 21.53 57.36 27.53 46.17 26.00 33.00 C 24.48 19.84 45.14 20.94 55.00 22.00 C 64.86 23.06 81.68 18.27 89.00 28.00
C 91.23 38.87 81.95 45.49 71.00 43.00
C 75.68 56.60 92.05 56.72 98.69 45.69 C 105.34 34.67 103.08 18.38 90.68 12.32 C 78.27 6.26 57.69 12.22 44.00 10.00 C 30.31 7.78 17.25 12.03 14.00 26.00 Z"/>
</g>
<g fill="#676767" fill-opacity="0.32" stroke="None">
<path d="
M 14.00 66.00 
C 13.31 53.25 12.58 38.68 14.00 26.00
C 11.36 37.34 12.14 54.53 14.00 66.00 Z"/>
</g>
<g fill="#F6F6F6" fill-opacity="0.91" stroke="None">
<path d="
M 98.00 75.00 
C 97.62 74.37 95.56 72.57 95.00 72.00
C 89.90 67.77 84.76 62.65 80.00 59.00
C 78.72 58.02 77.99 57.17 77.00 56.00
C 76.68 55.81 76.19 55.32 76.00 55.00
C 74.93 54.10 73.94 52.84 73.00 52.00
C 68.68 45.93 59.14 44.31 55.25 36.75 C 51.36 29.19 36.09 26.77 37.01 35.99 C 37.93 45.21 48.44 45.88 53.30 52.70 C 58.16 59.51 65.95 61.72 70.92 68.08 C 75.89 74.44 84.38 76.69 88.00 84.00
C 94.26 85.93 100.96 81.38 98.00 75.00 Z"/>
</g>
<g fill="#757575" fill-opacity="0.15" stroke="None">
<path d="
M 76.00 55.00 
C 75.16 53.62 74.32 52.96 73.00 52.00
C 73.94 52.84 74.93 54.10 76.00 55.00 Z"/>
</g>
<g fill="#777777" fill-opacity="0.15" stroke="None">
<path d="
M 80.00 59.00 
C 78.95 58.01 78.40 56.85 77.00 56.00
C 77.99 57.17 78.72 58.02 80.00 59.00 Z"/>
</g>
<g fill="#767676" fill-opacity="0.20" stroke="None">
<path d="
M 98.00 75.00 
C 97.31 73.51 96.21 73.01 95.00 72.00
C 95.56 72.57 97.62 74.37 98.00 75.00 Z"/>
</g>
</svg>